<?xml version="1.0" encoding="UTF-8"?>
<svg version="1.1" xmlns="http://www.w3.org/2000/svg" width="1200" height="1200">
<path d="M0 0 C1.41524673 0.17429942 2.83061576 0.34760823 4.24609375 0.52001953 C26.05716659 3.20259098 47.58239206 7.09123347 69 12 C69.65166138 12.14932983 70.30332275 12.29865967 70.97473145 12.45251465 C159.2436032 32.83078058 243.82845928 75.05722506 313.07910156 133.38330078 C314.87754051 134.89693356 316.68350385 136.40098085 318.4921875 137.90234375 C325.66118966 143.87757241 332.55474574 150.11053547 339.37060547 156.48388672 C341.0002108 158.00019614 342.64055497 159.5038853 344.28515625 161.00390625 C353.60157421 169.51002024 362.85291677 178.13127254 371.03515625 187.75390625 C373.18987305 190.2170517 375.41795868 192.5994343 377.65844727 194.984375 C383.72792259 201.44835327 389.45895106 208.07368883 395 215 C395.99294221 216.20335139 396.98786509 217.40507015 397.984375 218.60546875 C410.02637153 233.15461445 420.7536371 248.50317888 431.25 264.1875 C431.87710373 265.12206024 431.87710373 265.12206024 432.51687622 266.07550049 C482.16256778 340.18211046 513.82406161 425.32175316 528 528 C528.14953125 529.17304687 528.2990625 530.34609375 528.453125 531.5546875 C533.89706611 575.20007746 533.67144877 622.39900847 528 666 C527.82570058 667.41524673 527.65239177 668.83061576 527.47998047 670.24609375 C524.79740902 692.05716659 520.90876653 713.58239206 516 735 C515.85067017 735.65166138 515.70134033 736.30332275 515.54748535 736.97473145 C495.16921942 825.2436032 452.94277494 909.82845928 394.61669922 979.07910156 C393.10306644 980.87754051 391.59901915 982.68350385 390.09765625 984.4921875 C384.12242759 991.66118966 377.88946453 998.55474574 371.51611328 1005.37060547 C369.99980386 1007.0002108 368.4961147 1008.64055497 366.99609375 1010.28515625 C358.48997976 1019.60157421 349.86872746 1028.85291677 340.24609375 1037.03515625 C337.7829483 1039.18987305 335.4005657 1041.41795868 333.015625 1043.65844727 C326.55164673 1049.72792259 319.92631117 1055.45895106 313 1061 C311.79664861 1061.99294221 310.59492985 1062.98786509 309.39453125 1063.984375 C294.84538555 1076.02637153 279.49682112 1086.7536371 263.8125 1097.25 C263.18945984 1097.66806915 262.56641968 1098.08613831 261.92449951 1098.51687622 C187.81788954 1148.16256778 102.67824684 1179.82406161 0 1194 C-1.17304687 1194.14953125 -2.34609375 1194.2990625 -3.5546875 1194.453125 C-47.20007746 1199.89706611 -94.39900847 1199.67144877 -138 1194 C-139.41524673 1193.82570058 -140.83061576 1193.65239177 -142.24609375 1193.47998047 C-164.05716659 1190.79740902 -185.58239206 1186.90876653 -207 1182 C-207.65166138 1181.85067017 -208.30332275 1181.70134033 -208.97473145 1181.54748535 C-297.2436032 1161.16921942 -381.82845928 1118.94277494 -451.07910156 1060.61669922 C-452.87754051 1059.10306644 -454.68350385 1057.59901915 -456.4921875 1056.09765625 C-463.66118966 1050.12242759 -470.55474574 1043.88946453 -477.37060547 1037.51611328 C-479.0002108 1035.99980386 -480.64055497 1034.4961147 -482.28515625 1032.99609375 C-491.60157421 1024.48997976 -500.85291677 1015.86872746 -509.03515625 1006.24609375 C-511.18987305 1003.7829483 -513.41795868 1001.4005657 -515.65844727 999.015625 C-521.72792259 992.55164673 -527.45895106 985.92631117 -533 979 C-533.99294221 977.79664861 -534.98786509 976.59492985 -535.984375 975.39453125 C-548.02637153 960.84538555 -558.7536371 945.49682112 -569.25 929.8125 C-569.66806915 929.18945984 -570.08613831 928.56641968 -570.51687622 927.92449951 C-620.16256778 853.81788954 -651.82406161 768.67824684 -666 666 C-666.14953125 664.82695313 -666.2990625 663.65390625 -666.453125 662.4453125 C-671.89706611 618.79992254 -671.67144877 571.60099153 -666 528 C-665.82570058 526.58475327 -665.65239177 525.16938424 -665.47998047 523.75390625 C-662.79740902 501.94283341 -658.90876653 480.41760794 -654 459 C-653.85067017 458.34833862 -653.70134033 457.69667725 -653.54748535 457.02526855 C-633.16921942 368.7563968 -590.94277494 284.17154072 -532.61669922 214.92089844 C-531.10306644 213.12245949 -529.59901915 211.31649615 -528.09765625 209.5078125 C-522.12242759 202.33881034 -515.88946453 195.44525426 -509.51611328 188.62939453 C-507.99980386 186.9997892 -506.4961147 185.35944503 -504.99609375 183.71484375 C-496.48997976 174.39842579 -487.86872746 165.14708323 -478.24609375 156.96484375 C-475.7829483 154.81012695 -473.4005657 152.58204132 -471.015625 150.34155273 C-464.55164673 144.27207741 -457.92631117 138.54104894 -451 133 C-449.79664861 132.00705779 -448.59492985 131.01213491 -447.39453125 130.015625 C-432.84538555 117.97362847 -417.49682112 107.2463629 -401.8125 96.75 C-401.18945984 96.33193085 -400.56641968 95.91386169 -399.92449951 95.48312378 C-325.81788954 45.83743222 -240.67824684 14.17593839 -138 0 C-136.82695313 -0.14953125 -135.65390625 -0.2990625 -134.4453125 -0.453125 C-90.79992254 -5.89706611 -43.60099153 -5.67144877 0 0 Z " fill="#223EC6" transform="translate(669,3)"/>
<path d="M0 0 C34.79521533 1.34085608 66.88087782 19.32137981 90.52734375 44.1484375 C114.6942006 70.43379595 126.50576993 103.47749816 126.3125 138.9375 C126.30976578 139.98707886 126.30976578 139.98707886 126.30697632 141.05786133 C126.26202553 151.32245326 125.82103824 161.04737709 123 171 C122.82307617 171.64743164 122.64615234 172.29486328 122.46386719 172.96191406 C112.19412254 210.12100738 88.56830323 240.56988453 55.125 259.75 C32.19903637 272.39238106 7.42158758 278.351474 -18.72383118 278.24050903 C-20.27360215 278.24138306 -21.82337282 278.24313765 -23.37314194 278.24568737 C-27.59659602 278.2501262 -31.81994726 278.24220534 -36.04338825 278.23213124 C-40.61102772 278.22344867 -45.17866196 278.22642029 -49.74630737 278.22793579 C-57.64840874 278.22898162 -65.55047694 278.22273673 -73.45256996 278.21146011 C-84.87749438 278.19516693 -96.30240285 278.18999321 -107.72733762 278.18748413 C-126.26606945 278.18311301 -144.80478361 278.16981975 -163.34350586 278.15087891 C-181.34610913 278.132505 -199.3487076 278.1183559 -217.35131836 278.10986328 C-218.4620523 278.10933783 -219.57278625 278.10881239 -220.7171788 278.10827102 C-226.2897191 278.10566084 -231.86225943 278.10313345 -237.43479979 278.10064721 C-283.62321209 278.07993287 -329.81160513 278.04472324 -376 278 C-375.0675051 276.58527081 -374.13282691 275.1719806 -373.19726562 273.75927734 C-372.67700806 272.9720932 -372.15675049 272.18490906 -371.62072754 271.37387085 C-369.0826909 267.65642233 -366.29736469 264.14891135 -363.5 260.625 C-358.55100579 254.33059692 -353.72178227 247.96649945 -349 241.5 C-344.43346245 235.25098674 -339.77738603 229.08933486 -335 223 C-330.27034283 216.96912766 -325.65193354 210.87200343 -321.125 204.6875 C-278.13776325 146.05748271 -278.13776325 146.05748271 -239.89901638 139.46541405 C-235.46346444 138.93595534 -231.14743035 138.85634919 -226.68605042 138.86196899 C-225.76847566 138.85914771 -224.85090091 138.85632643 -223.90552086 138.85341966 C-220.8413835 138.84510973 -217.77728245 138.84373849 -214.71313477 138.84228516 C-212.51148884 138.83761414 -210.30984388 138.8324701 -208.10820007 138.82688904 C-203.37035272 138.81562438 -198.63251159 138.80718219 -193.89465523 138.80076981 C-186.39157412 138.79006493 -178.88853771 138.76981204 -171.38548279 138.74765015 C-160.8547308 138.71712854 -150.32397749 138.68790214 -139.79321289 138.66210938 C-139.12548943 138.66047119 -138.45776597 138.65883301 -137.76980846 138.65714519 C-126.96903753 138.63090626 -116.16826321 138.61223577 -105.36747397 138.59551747 C-94.25233522 138.57803626 -83.13725844 138.54893916 -72.02217144 138.5106281 C-65.79209622 138.48962904 -59.5621151 138.47411094 -53.33200264 138.47182083 C-47.46404838 138.4696613 -41.59628995 138.45365964 -35.72839546 138.42743111 C-33.5855823 138.42028582 -31.44274529 138.41811371 -29.29992294 138.42153358 C-4.78614799 138.45438136 17.05169202 134.84077034 35.6171875 117.41015625 C49.08275746 103.79006336 56.27118237 87.06828812 56.5 67.9375 C56.2896697 50.38243162 49.59172409 35.04637182 38 22 C37.44570313 21.36320313 36.89140625 20.72640625 36.3203125 20.0703125 C26.84691724 9.87168124 13.4538318 3.84600288 0 1 C0 0.67 0 0.34 0 0 Z " fill="#FEFEFE" transform="translate(711,574)"/>
<path d="M0 0 C1.55802057 -0.00087401 3.11604084 -0.00262857 4.67405957 -0.00517833 C8.92031658 -0.00961749 13.16647132 -0.00169585 17.41271532 0.00837779 C22.0048949 0.01705989 26.59706927 0.01408878 31.18925476 0.01257324 C39.1339179 0.01152739 47.07854805 0.01777259 55.0232029 0.02904892 C66.50966548 0.04534169 77.99611221 0.05051578 89.48258509 0.0530249 C108.12114547 0.05739609 126.75968829 0.07068953 145.39823914 0.08963013 C163.49784762 0.10800386 181.59745133 0.12215305 199.69706726 0.13064575 C200.8137752 0.1311712 201.93048313 0.13169665 203.0810307 0.13223802 C208.68353915 0.1348482 214.28604762 0.13737559 219.88855612 0.13986182 C266.3257966 0.16057637 312.76301794 0.19578617 359.20024109 0.24050903 C358.26774619 1.65523822 357.333068 3.06852844 356.39750671 4.48123169 C355.87724915 5.26841583 355.35699158 6.05559998 354.82096863 6.86663818 C352.28293199 10.5840867 349.49760577 14.09159768 346.70024109 17.61550903 C341.75124688 23.90991211 336.92202336 30.27400959 332.20024109 36.74050903 C327.63370354 42.98952229 322.97762712 49.15117417 318.20024109 55.24050903 C313.47058392 61.27138138 308.85217463 67.3685056 304.32524109 73.55300903 C262.7627453 130.23983124 262.7627453 130.23983124 225.20024109 138.24050903 C219.33492966 139.10944481 213.65860245 139.38403334 207.73480225 139.37181091 C206.3520915 139.37498448 206.3520915 139.37498448 204.9414472 139.37822217 C201.86892691 139.38418813 198.79644809 139.38322444 195.72392273 139.38235474 C193.51390005 139.38538859 191.303878 139.38891067 189.09385681 139.3928833 C184.34074904 139.40075685 179.58764872 139.40591147 174.8345356 139.40917397 C167.3058965 139.41510189 159.77730423 139.4316603 152.24868774 139.45051575 C149.66692069 139.45685284 147.08515361 139.46317847 144.5033865 139.46949291 C142.56413353 139.47424163 142.56413353 139.47424163 140.58570373 139.47908628 C133.90570497 139.49510108 127.22570396 139.50978271 120.54570007 139.52346802 C119.87581381 139.52484389 119.20592755 139.52621976 118.5157417 139.52763733 C107.68013895 139.54952885 96.84454788 139.56031521 86.00892694 139.56783877 C74.85419296 139.5759401 63.69954505 139.59958916 52.54486364 139.63579243 C46.29406368 139.65548369 40.04343739 139.66798071 33.79260445 139.66295815 C27.90488884 139.65828486 22.01750175 139.67226283 16.12985229 139.69997025 C13.98100806 139.70683708 11.83212952 139.70705778 9.68328667 139.69976997 C-13.38471665 139.62949728 -33.06311604 143.2615515 -50.79975891 159.24050903 C-51.73368469 160.05261841 -51.73368469 160.05261841 -52.68647766 160.88113403 C-65.01286984 172.29343421 -72.28754732 188.79434054 -73.01850891 205.47488403 C-73.25994867 214.16945891 -72.91120235 222.01830106 -69.79975891 230.24050903 C-69.44784485 231.21246216 -69.09593079 232.18441528 -68.73335266 233.18582153 C-61.48276199 251.8985671 -49.15639979 264.47954983 -31.11225891 273.05300903 C-26.72888928 274.96758428 -22.47864302 276.26941988 -17.79975891 277.24050903 C-17.79975891 277.57050903 -17.79975891 277.90050903 -17.79975891 278.24050903 C-52.19344054 277.48535834 -84.13252625 258.05943941 -107.38179016 233.95535278 C-135.03686014 204.41593847 -144.06142823 166.62451712 -142.97895813 127.19265747 C-141.38476361 92.03350095 -121.80589931 59.34979324 -96.570755 35.82058716 C-80.18941053 21.20519408 -60.19356599 11.11234524 -39.23725891 4.99050903 C-38.39912659 4.7440564 -37.56099426 4.49760376 -36.69746399 4.24368286 C-24.53582883 0.84397173 -12.57037717 -0.05305817 0 0 Z " fill="#FEFEFE" transform="translate(504.7997589111328,347.7594909667969)"/>
</svg>
